<svg width="201" height="170" viewBox="0 0 201 170" fill="none" xmlns="http://www.w3.org/2000/svg">
<g opacity="0.47">
<path d="M33.0534 6.5882H32.7054V7.4738H33.0534V6.5882Z" fill="#CED0D1"/>
<path d="M33.0534 157.282H32.7054V155.511H33.0534V157.282ZM33.0534 153.74H32.7054V151.969H33.0534V153.74ZM33.0534 150.162H32.7054V148.391H33.0534V150.162ZM33.0534 146.584H32.7054V144.813H33.0534V146.584ZM33.0534 143.042H32.7054V141.271H33.0534V143.042ZM33.0534 139.464H32.7054V137.693H33.0534V139.464ZM33.0534 135.886H32.7054V134.115H33.0534V135.886ZM33.0534 132.344H32.7054V130.572H33.0534V132.344ZM33.0534 128.766H32.7054V126.995H33.0534V128.766ZM33.0534 125.188H32.7054V123.417H33.0534V125.188ZM33.0534 121.61H32.7054V119.839H33.0534V121.61ZM33.0534 118.068H32.7054V116.297H33.0534V118.068ZM33.0534 114.49H32.7054V112.719H33.0534V114.49ZM33.0534 110.912H32.7054V109.141H33.0534V110.912ZM33.0534 107.37H32.7054V105.598H33.0534V107.37ZM33.0534 103.792H32.7054V102.021H33.0534V103.792ZM33.0534 100.214H32.7054V98.4428H33.0534V100.214ZM33.0534 96.6716H32.7054V94.9004H33.0534V96.6716ZM33.0534 93.0938H32.7054V91.3226H33.0534V93.0938ZM33.0534 89.5159H32.7054V87.7447H33.0534V89.5159ZM33.0534 85.9735H32.7054V84.2023H33.0534V85.9735ZM33.0534 82.3957H32.7054V80.6245H33.0534V82.3957ZM33.0534 78.8179H32.7054V77.0467H33.0534V78.8179ZM33.0534 75.24H32.7054V73.4688H33.0534V75.24ZM33.0534 71.6976H32.7054V69.9264H33.0534V71.6976ZM33.0534 68.1198H32.7054V66.3486H33.0534V68.1198ZM33.0534 64.542H32.7054V62.7708H33.0534V64.542ZM33.0534 60.9996H32.7054V59.2283H33.0534V60.9996ZM33.0534 57.4217H32.7054V55.6505H33.0534V57.4217ZM33.0534 53.8439H32.7054V52.0727H33.0534V53.8439ZM33.0534 50.3015H32.7054V48.5303H33.0534V50.3015ZM33.0534 46.7237H32.7054V44.9524H33.0534V46.7237ZM33.0534 43.1458H32.7054V41.3746H33.0534V43.1458ZM33.0534 39.6034H32.7054V37.8322H33.0534V39.6034ZM33.0534 36.0256H32.7054V34.2544H33.0534V36.0256ZM33.0534 32.4477H32.7054V30.6765H33.0534V32.4477ZM33.0534 28.8699H32.7054V27.0987H33.0534V28.8699ZM33.0534 25.3275H32.7054V23.5563H33.0534V25.3275ZM33.0534 21.7497H32.7054V19.9785H33.0534V21.7497ZM33.0534 18.1718H32.7054V16.4006H33.0534V18.1718ZM33.0534 14.6294H32.7054V12.8582H33.0534V14.6294ZM33.0534 11.0516H32.7054V9.2804H33.0534V11.0516Z" fill="#CED0D1"/>
<path d="M33.0534 159.089H32.7054V159.974H33.0534V159.089Z" fill="#CED0D1"/>
<path d="M52.3014 6.58813H51.9533V7.47374H52.3014V6.58813Z" fill="#CED0D1"/>
<path d="M52.3014 157.282H51.9533V155.511H52.3014V157.282ZM52.3014 153.74H51.9533V151.969H52.3014V153.74ZM52.3014 150.162H51.9533V148.391H52.3014V150.162ZM52.3014 146.584H51.9533V144.813H52.3014V146.584ZM52.3014 143.042H51.9533V141.27H52.3014V143.042ZM52.3014 139.464H51.9533V137.693H52.3014V139.464ZM52.3014 135.886H51.9533V134.115H52.3014V135.886ZM52.3014 132.344H51.9533V130.572H52.3014V132.344ZM52.3014 128.766H51.9533V126.995H52.3014V128.766ZM52.3014 125.188H51.9533V123.417H52.3014V125.188ZM52.3014 121.61H51.9533V119.839H52.3014V121.61ZM52.3014 118.068H51.9533V116.296H52.3014V118.068ZM52.3014 114.49H51.9533V112.719H52.3014V114.49ZM52.3014 110.912H51.9533V109.141H52.3014V110.912ZM52.3014 107.37H51.9533V105.598H52.3014V107.37ZM52.3014 103.792H51.9533V102.021H52.3014V103.792ZM52.3014 100.214H51.9533V98.4427H52.3014V100.214ZM52.3014 96.6715H51.9533V94.9003H52.3014V96.6715ZM52.3014 93.0937H51.9533V91.3225H52.3014V93.0937ZM52.3014 89.5159H51.9533V87.7447H52.3014V89.5159ZM52.3014 85.9735H51.9533V84.2023H52.3014V85.9735ZM52.3014 82.3956H51.9533V80.6244H52.3014V82.3956ZM52.3014 78.8178H51.9533V77.0466H52.3014V78.8178ZM52.3014 75.24H51.9533V73.4688H52.3014V75.24ZM52.3014 71.6976H51.9533V69.9264H52.3014V71.6976ZM52.3014 68.1197H51.9533V66.3485H52.3014V68.1197ZM52.3014 64.5419H51.9533V62.7707H52.3014V64.5419ZM52.3014 60.9995H51.9533V59.2283H52.3014V60.9995ZM52.3014 57.4217H51.9533V55.6505H52.3014V57.4217ZM52.3014 53.8438H51.9533V52.0726H52.3014V53.8438ZM52.3014 50.3014H51.9533V48.5302H52.3014V50.3014ZM52.3014 46.7236H51.9533V44.9524H52.3014V46.7236ZM52.3014 43.1458H51.9533V41.3746H52.3014V43.1458ZM52.3014 39.6033H51.9533V37.8321H52.3014V39.6033ZM52.3014 36.0255H51.9533V34.2543H52.3014V36.0255ZM52.3014 32.4477H51.9533V30.6765H52.3014V32.4477ZM52.3014 28.8698H51.9533V27.0986H52.3014V28.8698ZM52.3014 25.3274H51.9533V23.5562H52.3014V25.3274ZM52.3014 21.7496H51.9533V19.9784H52.3014V21.7496ZM52.3014 18.1718H51.9533V16.4006H52.3014V18.1718ZM52.3014 14.6294H51.9533V12.8582H52.3014V14.6294ZM52.3014 11.0515H51.9533V9.28033H52.3014V11.0515Z" fill="#CED0D1"/>
<path d="M52.3014 159.089H51.9533V159.974H52.3014V159.089Z" fill="#CED0D1"/>
<path d="M71.5843 6.58813H71.2363V7.47374H71.5843V6.58813Z" fill="#CED0D1"/>
<path d="M71.5843 157.282H71.2363V155.511H71.5843V157.282ZM71.5843 153.74H71.2363V151.969H71.5843V153.74ZM71.5843 150.162H71.2363V148.391H71.5843V150.162ZM71.5843 146.584H71.2363V144.813H71.5843V146.584ZM71.5843 143.042H71.2363V141.27H71.5843V143.042ZM71.5843 139.464H71.2363V137.693H71.5843V139.464ZM71.5843 135.886H71.2363V134.115H71.5843V135.886ZM71.5843 132.344H71.2363V130.572H71.5843V132.344ZM71.5843 128.766H71.2363V126.995H71.5843V128.766ZM71.5843 125.188H71.2363V123.417H71.5843V125.188ZM71.5843 121.61H71.2363V119.839H71.5843V121.61ZM71.5843 118.068H71.2363V116.296H71.5843V118.068ZM71.5843 114.49H71.2363V112.719H71.5843V114.49ZM71.5843 110.912H71.2363V109.141H71.5843V110.912ZM71.5843 107.37H71.2363V105.598H71.5843V107.37ZM71.5843 103.792H71.2363V102.021H71.5843V103.792ZM71.5843 100.214H71.2363V98.4427H71.5843V100.214ZM71.5843 96.6715H71.2363V94.9003H71.5843V96.6715ZM71.5843 93.0937H71.2363V91.3225H71.5843V93.0937ZM71.5843 89.5159H71.2363V87.7447H71.5843V89.5159ZM71.5843 85.9735H71.2363V84.2023H71.5843V85.9735ZM71.5843 82.3956H71.2363V80.6244H71.5843V82.3956ZM71.5843 78.8178H71.2363V77.0466H71.5843V78.8178ZM71.5843 75.24H71.2363V73.4688H71.5843V75.24ZM71.5843 71.6976H71.2363V69.9264H71.5843V71.6976ZM71.5843 68.1197H71.2363V66.3485H71.5843V68.1197ZM71.5843 64.5419H71.2363V62.7707H71.5843V64.5419ZM71.5843 60.9995H71.2363V59.2283H71.5843V60.9995ZM71.5843 57.4217H71.2363V55.6505H71.5843V57.4217ZM71.5843 53.8438H71.2363V52.0726H71.5843V53.8438ZM71.5843 50.3014H71.2363V48.5302H71.5843V50.3014ZM71.5843 46.7236H71.2363V44.9524H71.5843V46.7236ZM71.5843 43.1458H71.2363V41.3746H71.5843V43.1458ZM71.5843 39.6033H71.2363V37.8321H71.5843V39.6033ZM71.5843 36.0255H71.2363V34.2543H71.5843V36.0255ZM71.5843 32.4477H71.2363V30.6765H71.5843V32.4477ZM71.5843 28.8698H71.2363V27.0986H71.5843V28.8698ZM71.5843 25.3274H71.2363V23.5562H71.5843V25.3274ZM71.5843 21.7496H71.2363V19.9784H71.5843V21.7496ZM71.5843 18.1718H71.2363V16.4006H71.5843V18.1718ZM71.5843 14.6294H71.2363V12.8582H71.5843V14.6294ZM71.5843 11.0515H71.2363V9.28033H71.5843V11.0515Z" fill="#CED0D1"/>
<path d="M71.5843 159.089H71.2363V159.974H71.5843V159.089Z" fill="#CED0D1"/>
<path d="M90.8327 6.58813H90.4846V7.47374H90.8327V6.58813Z" fill="#CED0D1"/>
<path d="M90.8327 157.282H90.4846V155.511H90.8327V157.282ZM90.8327 153.74H90.4846V151.969H90.8327V153.74ZM90.8327 150.162H90.4846V148.391H90.8327V150.162ZM90.8327 146.584H90.4846V144.813H90.8327V146.584ZM90.8327 143.042H90.4846V141.27H90.8327V143.042ZM90.8327 139.464H90.4846V137.693H90.8327V139.464ZM90.8327 135.886H90.4846V134.115H90.8327V135.886ZM90.8327 132.344H90.4846V130.572H90.8327V132.344ZM90.8327 128.766H90.4846V126.995H90.8327V128.766ZM90.8327 125.188H90.4846V123.417H90.8327V125.188ZM90.8327 121.61H90.4846V119.839H90.8327V121.61ZM90.8327 118.068H90.4846V116.296H90.8327V118.068ZM90.8327 114.49H90.4846V112.719H90.8327V114.49ZM90.8327 110.912H90.4846V109.141H90.8327V110.912ZM90.8327 107.37H90.4846V105.598H90.8327V107.37ZM90.8327 103.792H90.4846V102.021H90.8327V103.792ZM90.8327 100.214H90.4846V98.4427H90.8327V100.214ZM90.8327 96.6715H90.4846V94.9003H90.8327V96.6715ZM90.8327 93.0937H90.4846V91.3225H90.8327V93.0937ZM90.8327 89.5159H90.4846V87.7447H90.8327V89.5159ZM90.8327 85.9735H90.4846V84.2023H90.8327V85.9735ZM90.8327 82.3956H90.4846V80.6244H90.8327V82.3956ZM90.8327 78.8178H90.4846V77.0466H90.8327V78.8178ZM90.8327 75.24H90.4846V73.4688H90.8327V75.24ZM90.8327 71.6976H90.4846V69.9264H90.8327V71.6976ZM90.8327 68.1197H90.4846V66.3485H90.8327V68.1197ZM90.8327 64.5419H90.4846V62.7707H90.8327V64.5419ZM90.8327 60.9995H90.4846V59.2283H90.8327V60.9995ZM90.8327 57.4217H90.4846V55.6505H90.8327V57.4217ZM90.8327 53.8438H90.4846V52.0726H90.8327V53.8438ZM90.8327 50.3014H90.4846V48.5302H90.8327V50.3014ZM90.8327 46.7236H90.4846V44.9524H90.8327V46.7236ZM90.8327 43.1458H90.4846V41.3746H90.8327V43.1458ZM90.8327 39.6033H90.4846V37.8321H90.8327V39.6033ZM90.8327 36.0255H90.4846V34.2543H90.8327V36.0255ZM90.8327 32.4477H90.4846V30.6765H90.8327V32.4477ZM90.8327 28.8698H90.4846V27.0986H90.8327V28.8698ZM90.8327 25.3274H90.4846V23.5562H90.8327V25.3274ZM90.8327 21.7496H90.4846V19.9784H90.8327V21.7496ZM90.8327 18.1718H90.4846V16.4006H90.8327V18.1718ZM90.8327 14.6294H90.4846V12.8582H90.8327V14.6294ZM90.8327 11.0515H90.4846V9.28033H90.8327V11.0515Z" fill="#CED0D1"/>
<path d="M90.8327 159.089H90.4846V159.974H90.8327V159.089Z" fill="#CED0D1"/>
<path d="M110.081 6.58813H109.733V7.47374H110.081V6.58813Z" fill="#CED0D1"/>
<path d="M110.081 157.282H109.733V155.511H110.081V157.282ZM110.081 153.74H109.733V151.969H110.081V153.74ZM110.081 150.162H109.733V148.391H110.081V150.162ZM110.081 146.584H109.733V144.813H110.081V146.584ZM110.081 143.042H109.733V141.27H110.081V143.042ZM110.081 139.464H109.733V137.693H110.081V139.464ZM110.081 135.886H109.733V134.115H110.081V135.886ZM110.081 132.344H109.733V130.572H110.081V132.344ZM110.081 128.766H109.733V126.995H110.081V128.766ZM110.081 125.188H109.733V123.417H110.081V125.188ZM110.081 121.61H109.733V119.839H110.081V121.61ZM110.081 118.068H109.733V116.296H110.081V118.068ZM110.081 114.49H109.733V112.719H110.081V114.49ZM110.081 110.912H109.733V109.141H110.081V110.912ZM110.081 107.37H109.733V105.598H110.081V107.37ZM110.081 103.792H109.733V102.021H110.081V103.792ZM110.081 100.214H109.733V98.4427H110.081V100.214ZM110.081 96.6715H109.733V94.9003H110.081V96.6715ZM110.081 93.0937H109.733V91.3225H110.081V93.0937ZM110.081 89.5159H109.733V87.7447H110.081V89.5159ZM110.081 85.9735H109.733V84.2023H110.081V85.9735ZM110.081 82.3956H109.733V80.6244H110.081V82.3956ZM110.081 78.8178H109.733V77.0466H110.081V78.8178ZM110.081 75.24H109.733V73.4688H110.081V75.24ZM110.081 71.6976H109.733V69.9264H110.081V71.6976ZM110.081 68.1197H109.733V66.3485H110.081V68.1197ZM110.081 64.5419H109.733V62.7707H110.081V64.5419ZM110.081 60.9995H109.733V59.2283H110.081V60.9995ZM110.081 57.4217H109.733V55.6505H110.081V57.4217ZM110.081 53.8438H109.733V52.0726H110.081V53.8438ZM110.081 50.3014H109.733V48.5302H110.081V50.3014ZM110.081 46.7236H109.733V44.9524H110.081V46.7236ZM110.081 43.1458H109.733V41.3746H110.081V43.1458ZM110.081 39.6033H109.733V37.8321H110.081V39.6033ZM110.081 36.0255H109.733V34.2543H110.081V36.0255ZM110.081 32.4477H109.733V30.6765H110.081V32.4477ZM110.081 28.8698H109.733V27.0986H110.081V28.8698ZM110.081 25.3274H109.733V23.5562H110.081V25.3274ZM110.081 21.7496H109.733V19.9784H110.081V21.7496ZM110.081 18.1718H109.733V16.4006H110.081V18.1718ZM110.081 14.6294H109.733V12.8582H110.081V14.6294ZM110.081 11.0515H109.733V9.28033H110.081V11.0515Z" fill="#CED0D1"/>
<path d="M110.081 159.089H109.733V159.974H110.081V159.089Z" fill="#CED0D1"/>
<path d="M129.364 6.58813H129.016V7.47374H129.364V6.58813Z" fill="#CED0D1"/>
<path d="M129.364 157.282H129.016V155.511H129.364V157.282ZM129.364 153.74H129.016V151.969H129.364V153.74ZM129.364 150.162H129.016V148.391H129.364V150.162ZM129.364 146.584H129.016V144.813H129.364V146.584ZM129.364 143.042H129.016V141.27H129.364V143.042ZM129.364 139.464H129.016V137.693H129.364V139.464ZM129.364 135.886H129.016V134.115H129.364V135.886ZM129.364 132.344H129.016V130.572H129.364V132.344ZM129.364 128.766H129.016V126.995H129.364V128.766ZM129.364 125.188H129.016V123.417H129.364V125.188ZM129.364 121.61H129.016V119.839H129.364V121.61ZM129.364 118.068H129.016V116.296H129.364V118.068ZM129.364 114.49H129.016V112.719H129.364V114.49ZM129.364 110.912H129.016V109.141H129.364V110.912ZM129.364 107.37H129.016V105.598H129.364V107.37ZM129.364 103.792H129.016V102.021H129.364V103.792ZM129.364 100.214H129.016V98.4427H129.364V100.214ZM129.364 96.6715H129.016V94.9003H129.364V96.6715ZM129.364 93.0937H129.016V91.3225H129.364V93.0937ZM129.364 89.5159H129.016V87.7447H129.364V89.5159ZM129.364 85.9735H129.016V84.2023H129.364V85.9735ZM129.364 82.3956H129.016V80.6244H129.364V82.3956ZM129.364 78.8178H129.016V77.0466H129.364V78.8178ZM129.364 75.24H129.016V73.4688H129.364V75.24ZM129.364 71.6976H129.016V69.9264H129.364V71.6976ZM129.364 68.1197H129.016V66.3485H129.364V68.1197ZM129.364 64.5419H129.016V62.7707H129.364V64.5419ZM129.364 60.9995H129.016V59.2283H129.364V60.9995ZM129.364 57.4217H129.016V55.6505H129.364V57.4217ZM129.364 53.8438H129.016V52.0726H129.364V53.8438ZM129.364 50.3014H129.016V48.5302H129.364V50.3014ZM129.364 46.7236H129.016V44.9524H129.364V46.7236ZM129.364 43.1458H129.016V41.3746H129.364V43.1458ZM129.364 39.6033H129.016V37.8321H129.364V39.6033ZM129.364 36.0255H129.016V34.2543H129.364V36.0255ZM129.364 32.4477H129.016V30.6765H129.364V32.4477ZM129.364 28.8698H129.016V27.0986H129.364V28.8698ZM129.364 25.3274H129.016V23.5562H129.364V25.3274ZM129.364 21.7496H129.016V19.9784H129.364V21.7496ZM129.364 18.1718H129.016V16.4006H129.364V18.1718ZM129.364 14.6294H129.016V12.8582H129.364V14.6294ZM129.364 11.0515H129.016V9.28033H129.364V11.0515Z" fill="#CED0D1"/>
<path d="M129.364 159.089H129.016V159.974H129.364V159.089Z" fill="#CED0D1"/>
<path d="M148.612 6.58813H148.264V7.47374H148.612V6.58813Z" fill="#CED0D1"/>
<path d="M148.612 157.282H148.264V155.511H148.612V157.282ZM148.612 153.74H148.264V151.969H148.612V153.74ZM148.612 150.162H148.264V148.391H148.612V150.162ZM148.612 146.584H148.264V144.813H148.612V146.584ZM148.612 143.042H148.264V141.27H148.612V143.042ZM148.612 139.464H148.264V137.693H148.612V139.464ZM148.612 135.886H148.264V134.115H148.612V135.886ZM148.612 132.344H148.264V130.572H148.612V132.344ZM148.612 128.766H148.264V126.995H148.612V128.766ZM148.612 125.188H148.264V123.417H148.612V125.188ZM148.612 121.61H148.264V119.839H148.612V121.61ZM148.612 118.068H148.264V116.296H148.612V118.068ZM148.612 114.49H148.264V112.719H148.612V114.49ZM148.612 110.912H148.264V109.141H148.612V110.912ZM148.612 107.37H148.264V105.598H148.612V107.37ZM148.612 103.792H148.264V102.021H148.612V103.792ZM148.612 100.214H148.264V98.4427H148.612V100.214ZM148.612 96.6715H148.264V94.9003H148.612V96.6715ZM148.612 93.0937H148.264V91.3225H148.612V93.0937ZM148.612 89.5159H148.264V87.7447H148.612V89.5159ZM148.612 85.9735H148.264V84.2023H148.612V85.9735ZM148.612 82.3956H148.264V80.6244H148.612V82.3956ZM148.612 78.8178H148.264V77.0466H148.612V78.8178ZM148.612 75.24H148.264V73.4688H148.612V75.24ZM148.612 71.6976H148.264V69.9264H148.612V71.6976ZM148.612 68.1197H148.264V66.3485H148.612V68.1197ZM148.612 64.5419H148.264V62.7707H148.612V64.5419ZM148.612 60.9995H148.264V59.2283H148.612V60.9995ZM148.612 57.4217H148.264V55.6505H148.612V57.4217ZM148.612 53.8438H148.264V52.0726H148.612V53.8438ZM148.612 50.3014H148.264V48.5302H148.612V50.3014ZM148.612 46.7236H148.264V44.9524H148.612V46.7236ZM148.612 43.1458H148.264V41.3746H148.612V43.1458ZM148.612 39.6033H148.264V37.8321H148.612V39.6033ZM148.612 36.0255H148.264V34.2543H148.612V36.0255ZM148.612 32.4477H148.264V30.6765H148.612V32.4477ZM148.612 28.8698H148.264V27.0986H148.612V28.8698ZM148.612 25.3274H148.264V23.5562H148.612V25.3274ZM148.612 21.7496H148.264V19.9784H148.612V21.7496ZM148.612 18.1718H148.264V16.4006H148.612V18.1718ZM148.612 14.6294H148.264V12.8582H148.612V14.6294ZM148.612 11.0515H148.264V9.28033H148.612V11.0515Z" fill="#CED0D1"/>
<path d="M148.612 159.089H148.264V159.974H148.612V159.089Z" fill="#CED0D1"/>
<path d="M167.86 6.5882H167.512V7.4738H167.86V6.5882Z" fill="#CED0D1"/>
<path d="M167.86 157.282H167.512V155.511H167.86V157.282ZM167.86 153.74H167.512V151.969H167.86V153.74ZM167.86 150.162H167.512V148.391H167.86V150.162ZM167.86 146.584H167.512V144.813H167.86V146.584ZM167.86 143.042H167.512V141.271H167.86V143.042ZM167.86 139.464H167.512V137.693H167.86V139.464ZM167.86 135.886H167.512V134.115H167.86V135.886ZM167.86 132.344H167.512V130.572H167.86V132.344ZM167.86 128.766H167.512V126.995H167.86V128.766ZM167.86 125.188H167.512V123.417H167.86V125.188ZM167.86 121.61H167.512V119.839H167.86V121.61ZM167.86 118.068H167.512V116.297H167.86V118.068ZM167.86 114.49H167.512V112.719H167.86V114.49ZM167.86 110.912H167.512V109.141H167.86V110.912ZM167.86 107.37H167.512V105.598H167.86V107.37ZM167.86 103.792H167.512V102.021H167.86V103.792ZM167.86 100.214H167.512V98.4428H167.86V100.214ZM167.86 96.6716H167.512V94.9004H167.86V96.6716ZM167.86 93.0938H167.512V91.3226H167.86V93.0938ZM167.86 89.5159H167.512V87.7447H167.86V89.5159ZM167.86 85.9735H167.512V84.2023H167.86V85.9735ZM167.86 82.3957H167.512V80.6245H167.86V82.3957ZM167.86 78.8179H167.512V77.0467H167.86V78.8179ZM167.86 75.24H167.512V73.4688H167.86V75.24ZM167.86 71.6976H167.512V69.9264H167.86V71.6976ZM167.86 68.1198H167.512V66.3486H167.86V68.1198ZM167.86 64.542H167.512V62.7708H167.86V64.542ZM167.86 60.9996H167.512V59.2283H167.86V60.9996ZM167.86 57.4217H167.512V55.6505H167.86V57.4217ZM167.86 53.8439H167.512V52.0727H167.86V53.8439ZM167.86 50.3015H167.512V48.5303H167.86V50.3015ZM167.86 46.7237H167.512V44.9524H167.86V46.7237ZM167.86 43.1458H167.512V41.3746H167.86V43.1458ZM167.86 39.6034H167.512V37.8322H167.86V39.6034ZM167.86 36.0256H167.512V34.2544H167.86V36.0256ZM167.86 32.4477H167.512V30.6765H167.86V32.4477ZM167.86 28.8699H167.512V27.0987H167.86V28.8699ZM167.86 25.3275H167.512V23.5563H167.86V25.3275ZM167.86 21.7497H167.512V19.9785H167.86V21.7497ZM167.86 18.1718H167.512V16.4006H167.86V18.1718ZM167.86 14.6294H167.512V12.8582H167.86V14.6294ZM167.86 11.0516H167.512V9.2804H167.86V11.0516Z" fill="#CED0D1"/>
<path d="M167.86 159.089H167.512V159.974H167.86V159.089Z" fill="#CED0D1"/>
<path d="M187.143 6.58813H186.795V7.47374H187.143V6.58813Z" fill="#CED0D1"/>
<path d="M187.143 157.282H186.795V155.511H187.143V157.282ZM187.143 153.74H186.795V151.969H187.143V153.74ZM187.143 150.162H186.795V148.391H187.143V150.162ZM187.143 146.584H186.795V144.813H187.143V146.584ZM187.143 143.042H186.795V141.27H187.143V143.042ZM187.143 139.464H186.795V137.693H187.143V139.464ZM187.143 135.886H186.795V134.115H187.143V135.886ZM187.143 132.344H186.795V130.572H187.143V132.344ZM187.143 128.766H186.795V126.995H187.143V128.766ZM187.143 125.188H186.795V123.417H187.143V125.188ZM187.143 121.61H186.795V119.839H187.143V121.61ZM187.143 118.068H186.795V116.296H187.143V118.068ZM187.143 114.49H186.795V112.719H187.143V114.49ZM187.143 110.912H186.795V109.141H187.143V110.912ZM187.143 107.37H186.795V105.598H187.143V107.37ZM187.143 103.792H186.795V102.021H187.143V103.792ZM187.143 100.214H186.795V98.4427H187.143V100.214ZM187.143 96.6715H186.795V94.9003H187.143V96.6715ZM187.143 93.0937H186.795V91.3225H187.143V93.0937ZM187.143 89.5159H186.795V87.7447H187.143V89.5159ZM187.143 85.9735H186.795V84.2023H187.143V85.9735ZM187.143 82.3956H186.795V80.6244H187.143V82.3956ZM187.143 78.8178H186.795V77.0466H187.143V78.8178ZM187.143 75.24H186.795V73.4688H187.143V75.24ZM187.143 71.6976H186.795V69.9264H187.143V71.6976ZM187.143 68.1197H186.795V66.3485H187.143V68.1197ZM187.143 64.5419H186.795V62.7707H187.143V64.5419ZM187.143 60.9995H186.795V59.2283H187.143V60.9995ZM187.143 57.4217H186.795V55.6505H187.143V57.4217ZM187.143 53.8438H186.795V52.0726H187.143V53.8438ZM187.143 50.3014H186.795V48.5302H187.143V50.3014ZM187.143 46.7236H186.795V44.9524H187.143V46.7236ZM187.143 43.1458H186.795V41.3746H187.143V43.1458ZM187.143 39.6033H186.795V37.8321H187.143V39.6033ZM187.143 36.0255H186.795V34.2543H187.143V36.0255ZM187.143 32.4477H186.795V30.6765H187.143V32.4477ZM187.143 28.8698H186.795V27.0986H187.143V28.8698ZM187.143 25.3274H186.795V23.5562H187.143V25.3274ZM187.143 21.7496H186.795V19.9784H187.143V21.7496ZM187.143 18.1718H186.795V16.4006H187.143V18.1718ZM187.143 14.6294H186.795V12.8582H187.143V14.6294ZM187.143 11.0515H186.795V9.28033H187.143V11.0515Z" fill="#CED0D1"/>
<path d="M187.143 159.089H186.795V159.974H187.143V159.089Z" fill="#CED0D1"/>
<path d="M193.582 24.3012H192.712V24.6554H193.582V24.3012Z" fill="#CED0D1"/>
<path d="M190.972 24.6554H189.231V24.3012H190.972V24.6554ZM187.526 24.6554H185.785V24.3012H187.526V24.6554ZM184.045 24.6554H182.305V24.3012H184.045V24.6554ZM180.564 24.6554H178.824V24.3012H180.564V24.6554ZM177.118 24.6554H175.378V24.3012H177.118V24.6554ZM173.638 24.6554H171.897V24.3012H173.638V24.6554ZM170.192 24.6554H168.452V24.3012H170.192V24.6554ZM166.711 24.6554H164.971V24.3012H166.711V24.6554ZM163.231 24.6554H161.49V24.3012H163.231V24.6554ZM159.785 24.6554H158.044V24.3012H159.785V24.6554ZM156.304 24.6554H154.564V24.3012H156.304V24.6554ZM152.858 24.6554H151.118V24.3012H152.858V24.6554ZM149.377 24.6554H147.637V24.3012H149.377V24.6554ZM145.897 24.6554H144.156V24.3012H145.897V24.6554ZM142.451 24.6554H140.711V24.3012H142.451V24.6554ZM138.97 24.6554H137.23V24.3012H138.97V24.6554ZM135.524 24.6554H133.784V24.3012H135.524V24.6554ZM132.044 24.6554H130.303V24.3012H132.044V24.6554ZM128.598 24.6554H126.857V24.3012H128.598V24.6554ZM125.117 24.6554H123.377V24.3012H125.117V24.6554ZM121.636 24.6554H119.896V24.3012H121.636V24.6554ZM118.191 24.6554H116.45V24.3012H118.191V24.6554ZM114.71 24.6554H112.969V24.3012H114.71V24.6554ZM111.264 24.6554H109.524V24.3012H111.264V24.6554ZM107.783 24.6554H106.043V24.3012H107.783V24.6554ZM104.303 24.6554H102.562V24.3012H104.303V24.6554ZM100.857 24.6554H99.1164V24.3012H100.857V24.6554ZM97.376 24.6554H95.6357V24.3012H97.376V24.6554ZM93.9302 24.6554H92.1898V24.3012H93.9302V24.6554ZM90.4495 24.6554H88.7091V24.3012H90.4495V24.6554ZM86.9688 24.6554H85.2285V24.3012H86.9688V24.6554ZM83.5229 24.6554H81.7826V24.3012H83.5229V24.6554ZM80.0422 24.6554H78.3019V24.3012H80.0422V24.6554ZM76.5964 24.6554H74.856V24.3012H76.5964V24.6554ZM73.1157 24.6554H71.3753V24.3012H73.1157V24.6554ZM69.6698 24.6554H67.9295V24.3012H69.6698V24.6554ZM66.1891 24.6554H64.4488V24.3012H66.1891V24.6554ZM62.7084 24.6554H60.9681V24.3012H62.7084V24.6554ZM59.2626 24.6554H57.5222V24.3012H59.2626V24.6554ZM55.7819 24.6554H54.0415V24.3012H55.7819V24.6554ZM52.336 24.6554H50.5957V24.3012H52.336V24.6554ZM48.8553 24.6554H47.115V24.3012H48.8553V24.6554ZM45.3746 24.6554H43.6343V24.3012H45.3746V24.6554ZM41.9288 24.6554H40.1884V24.3012H41.9288V24.6554ZM38.4481 24.6554H36.7077V24.3012H38.4481V24.6554ZM35.0022 24.6554H33.2619V24.3012H35.0022V24.6554ZM31.5215 24.6554H29.7812V24.3012H31.5215V24.6554ZM28.0408 24.6554H26.3005V24.3012H28.0408V24.6554ZM24.595 24.6554H22.8546V24.3012H24.595V24.6554ZM21.1143 24.6554H19.3739V24.3012H21.1143V24.6554ZM17.6684 24.6554H15.9281V24.3012H17.6684V24.6554ZM14.1877 24.6554H12.4474V24.3012H14.1877V24.6554Z" fill="#CED0D1"/>
<path d="M10.707 24.3012H9.83685V24.6554H10.707V24.3012Z" fill="#CED0D1"/>
<path d="M193.582 43.8895H192.712V44.2437H193.582V43.8895Z" fill="#CED0D1"/>
<path d="M190.971 44.2437H189.231V43.8895H190.971V44.2437ZM187.526 44.2437H185.785V43.8895H187.526V44.2437ZM184.045 44.2437H182.304V43.8895H184.045V44.2437ZM180.564 44.2437H178.824V43.8895H180.564V44.2437ZM177.118 44.2437H175.378V43.8895H177.118V44.2437ZM173.638 44.2437H171.897V43.8895H173.638V44.2437ZM170.192 44.2437H168.451V43.8895H170.192V44.2437ZM166.711 44.2437H164.971V43.8895H166.711V44.2437ZM163.23 44.2437H161.49V43.8895H163.23V44.2437ZM159.784 44.2437H158.044V43.8895H159.784V44.2437ZM156.304 44.2437H154.563V43.8895H156.304V44.2437ZM152.858 44.2437H151.118V43.8895H152.858V44.2437ZM149.377 44.2437H147.637V43.8895H149.377V44.2437ZM145.897 44.2437H144.156V43.8895H145.897V44.2437ZM142.451 44.2437H140.71V43.8895H142.451V44.2437ZM138.97 44.2437H137.23V43.8895H138.97V44.2437ZM135.524 44.2437H133.784V43.8895H135.524V44.2437ZM132.043 44.2437H130.303V43.8895H132.043V44.2437ZM128.598 44.2437H126.857V43.8895H128.598V44.2437ZM125.117 44.2437H123.377V43.8895H125.117V44.2437ZM121.636 44.2437H119.896V43.8895H121.636V44.2437ZM118.19 44.2437H116.45V43.8895H118.19V44.2437ZM114.71 44.2437H112.969V43.8895H114.71V44.2437ZM111.264 44.2437H109.523V43.8895H111.264V44.2437ZM107.783 44.2437H106.043V43.8895H107.783V44.2437ZM104.302 44.2437H102.562V43.8895H104.302V44.2437ZM100.857 44.2437H99.1162V43.8895H100.857V44.2437ZM97.3758 44.2437H95.6355V43.8895H97.3758V44.2437ZM93.93 44.2437H92.1896V43.8895H93.93V44.2437ZM90.4493 44.2437H88.709V43.8895H90.4493V44.2437ZM86.9686 44.2437H85.2283V43.8895H86.9686V44.2437ZM83.5227 44.2437H81.7824V43.8895H83.5227V44.2437ZM80.042 44.2437H78.3017V43.8895H80.042V44.2437ZM76.5962 44.2437H74.8558V43.8895H76.5962V44.2437ZM73.1155 44.2437H71.3751V43.8895H73.1155V44.2437ZM69.6696 44.2437H67.9293V43.8895H69.6696V44.2437ZM66.1889 44.2437H64.4486V43.8895H66.1889V44.2437ZM62.7083 44.2437H60.9679V43.8895H62.7083V44.2437ZM59.2624 44.2437H57.522V43.8895H59.2624V44.2437ZM55.7817 44.2437H54.0414V43.8895H55.7817V44.2437ZM52.3358 44.2437H50.5955V43.8895H52.3358V44.2437ZM48.8551 44.2437H47.1148V43.8895H48.8551V44.2437ZM45.3745 44.2437H43.6341V43.8895H45.3745V44.2437ZM41.9286 44.2437H40.1882V43.8895H41.9286V44.2437ZM38.4479 44.2437H36.7076V43.8895H38.4479V44.2437ZM35.002 44.2437H33.2617V43.8895H35.002V44.2437ZM31.5213 44.2437H29.781V43.8895H31.5213V44.2437ZM28.0407 44.2437H26.3003V43.8895H28.0407V44.2437ZM24.5948 44.2437H22.8544V43.8895H24.5948V44.2437ZM21.1141 44.2437H19.3738V43.8895H21.1141V44.2437ZM17.6682 44.2437H15.9279V43.8895H17.6682V44.2437ZM14.1875 44.2437H12.4472V43.8895H14.1875V44.2437Z" fill="#CED0D1"/>
<path d="M10.707 43.8897H9.83685V44.244H10.707V43.8897Z" fill="#CED0D1"/>
<path d="M193.582 63.516H192.712V63.8702H193.582V63.516Z" fill="#CED0D1"/>
<path d="M190.971 63.8702H189.231V63.516H190.971V63.8702ZM187.526 63.8702H185.785V63.516H187.526V63.8702ZM184.045 63.8702H182.304V63.516H184.045V63.8702ZM180.564 63.8702H178.824V63.516H180.564V63.8702ZM177.118 63.8702H175.378V63.516H177.118V63.8702ZM173.638 63.8702H171.897V63.516H173.638V63.8702ZM170.192 63.8702H168.451V63.516H170.192V63.8702ZM166.711 63.8702H164.971V63.516H166.711V63.8702ZM163.23 63.8702H161.49V63.516H163.23V63.8702ZM159.784 63.8702H158.044V63.516H159.784V63.8702ZM156.304 63.8702H154.563V63.516H156.304V63.8702ZM152.858 63.8702H151.118V63.516H152.858V63.8702ZM149.377 63.8702H147.637V63.516H149.377V63.8702ZM145.897 63.8702H144.156V63.516H145.897V63.8702ZM142.451 63.8702H140.71V63.516H142.451V63.8702ZM138.97 63.8702H137.23V63.516H138.97V63.8702ZM135.524 63.8702H133.784V63.516H135.524V63.8702ZM132.043 63.8702H130.303V63.516H132.043V63.8702ZM128.598 63.8702H126.857V63.516H128.598V63.8702ZM125.117 63.8702H123.377V63.516H125.117V63.8702ZM121.636 63.8702H119.896V63.516H121.636V63.8702ZM118.19 63.8702H116.45V63.516H118.19V63.8702ZM114.71 63.8702H112.969V63.516H114.71V63.8702ZM111.264 63.8702H109.523V63.516H111.264V63.8702ZM107.783 63.8702H106.043V63.516H107.783V63.8702ZM104.302 63.8702H102.562V63.516H104.302V63.8702ZM100.857 63.8702H99.1162V63.516H100.857V63.8702ZM97.3758 63.8702H95.6355V63.516H97.3758V63.8702ZM93.93 63.8702H92.1896V63.516H93.93V63.8702ZM90.4493 63.8702H88.709V63.516H90.4493V63.8702ZM86.9686 63.8702H85.2283V63.516H86.9686V63.8702ZM83.5227 63.8702H81.7824V63.516H83.5227V63.8702ZM80.042 63.8702H78.3017V63.516H80.042V63.8702ZM76.5962 63.8702H74.8558V63.516H76.5962V63.8702ZM73.1155 63.8702H71.3751V63.516H73.1155V63.8702ZM69.6696 63.8702H67.9293V63.516H69.6696V63.8702ZM66.1889 63.8702H64.4486V63.516H66.1889V63.8702ZM62.7083 63.8702H60.9679V63.516H62.7083V63.8702ZM59.2624 63.8702H57.522V63.516H59.2624V63.8702ZM55.7817 63.8702H54.0414V63.516H55.7817V63.8702ZM52.3358 63.8702H50.5955V63.516H52.3358V63.8702ZM48.8551 63.8702H47.1148V63.516H48.8551V63.8702ZM45.3745 63.8702H43.6341V63.516H45.3745V63.8702ZM41.9286 63.8702H40.1882V63.516H41.9286V63.8702ZM38.4479 63.8702H36.7076V63.516H38.4479V63.8702ZM35.002 63.8702H33.2617V63.516H35.002V63.8702ZM31.5213 63.8702H29.781V63.516H31.5213V63.8702ZM28.0407 63.8702H26.3003V63.516H28.0407V63.8702ZM24.5948 63.8702H22.8544V63.516H24.5948V63.8702ZM21.1141 63.8702H19.3738V63.516H21.1141V63.8702ZM17.6682 63.8702H15.9279V63.516H17.6682V63.8702ZM14.1875 63.8702H12.4472V63.516H14.1875V63.8702Z" fill="#CED0D1"/>
<path d="M10.707 63.5158H9.83685V63.87H10.707V63.5158Z" fill="#CED0D1"/>
<path d="M193.582 83.1046H192.712V83.4588H193.582V83.1046Z" fill="#CED0D1"/>
<path d="M190.972 83.4588H189.231V83.1046H190.972V83.4588ZM187.526 83.4588H185.785V83.1046H187.526V83.4588ZM184.045 83.4588H182.305V83.1046H184.045V83.4588ZM180.564 83.4588H178.824V83.1046H180.564V83.4588ZM177.119 83.4588H175.378V83.1046H177.119V83.4588ZM173.638 83.4588H171.897V83.1046H173.638V83.4588ZM170.192 83.4588H168.452V83.1046H170.192V83.4588ZM166.711 83.4588H164.971V83.1046H166.711V83.4588ZM163.231 83.4588H161.49V83.1046H163.231V83.4588ZM159.785 83.4588H158.044V83.1046H159.785V83.4588ZM156.304 83.4588H154.564V83.1046H156.304V83.4588ZM152.858 83.4588H151.118V83.1046H152.858V83.4588ZM149.377 83.4588H147.637V83.1046H149.377V83.4588ZM145.897 83.4588H144.156V83.1046H145.897V83.4588ZM142.451 83.4588H140.711V83.1046H142.451V83.4588ZM138.97 83.4588H137.23V83.1046H138.97V83.4588ZM135.524 83.4588H133.784V83.1046H135.524V83.4588ZM132.044 83.4588H130.303V83.1046H132.044V83.4588ZM128.598 83.4588H126.857V83.1046H128.598V83.4588ZM125.117 83.4588H123.377V83.1046H125.117V83.4588ZM121.636 83.4588H119.896V83.1046H121.636V83.4588ZM118.191 83.4588H116.45V83.1046H118.191V83.4588ZM114.71 83.4588H112.97V83.1046H114.71V83.4588ZM111.264 83.4588H109.524V83.1046H111.264V83.4588ZM107.783 83.4588H106.043V83.1046H107.783V83.4588ZM104.303 83.4588H102.562V83.1046H104.303V83.4588ZM100.857 83.4588H99.1164V83.1046H100.857V83.4588ZM97.3761 83.4588H95.6358V83.1046H97.3761V83.4588ZM93.9302 83.4588H92.1899V83.1046H93.9302V83.4588ZM90.4495 83.4588H88.7092V83.1046H90.4495V83.4588ZM86.9689 83.4588H85.2285V83.1046H86.9689V83.4588ZM83.523 83.4588H81.7826V83.1046H83.523V83.4588ZM80.0423 83.4588H78.3019V83.1046H80.0423V83.4588ZM76.5964 83.4588H74.8561V83.1046H76.5964V83.4588ZM73.1157 83.4588H71.3754V83.1046H73.1157V83.4588ZM69.6699 83.4588H67.9295V83.1046H69.6699V83.4588ZM66.1892 83.4588H64.4488V83.1046H66.1892V83.4588ZM62.7085 83.4588H60.9682V83.1046H62.7085V83.4588ZM59.2626 83.4588H57.5223V83.1046H59.2626V83.4588ZM55.7819 83.4588H54.0416V83.1046H55.7819V83.4588ZM52.3361 83.4588H50.5957V83.1046H52.3361V83.4588ZM48.8554 83.4588H47.115V83.1046H48.8554V83.4588ZM45.3747 83.4588H43.6344V83.1046H45.3747V83.4588ZM41.9288 83.4588H40.1885V83.1046H41.9288V83.4588ZM38.4481 83.4588H36.7078V83.1046H38.4481V83.4588ZM35.0023 83.4588H33.2619V83.1046H35.0023V83.4588ZM31.5216 83.4588H29.7812V83.1046H31.5216V83.4588ZM28.0409 83.4588H26.3006V83.1046H28.0409V83.4588ZM24.595 83.4588H22.8547V83.1046H24.595V83.4588ZM21.1143 83.4588H19.374V83.1046H21.1143V83.4588ZM17.6685 83.4588H15.9281V83.1046H17.6685V83.4588ZM14.1878 83.4588H12.4474V83.1046H14.1878V83.4588Z" fill="#CED0D1"/>
<path d="M10.707 83.1043H9.83685V83.4585H10.707V83.1043Z" fill="#CED0D1"/>
<path d="M193.582 102.694H192.712V103.048H193.582V102.694Z" fill="#CED0D1"/>
<path d="M190.971 103.048H189.231V102.694H190.971V103.048ZM187.526 103.048H185.785V102.694H187.526V103.048ZM184.045 103.048H182.304V102.694H184.045V103.048ZM180.564 103.048H178.824V102.694H180.564V103.048ZM177.118 103.048H175.378V102.694H177.118V103.048ZM173.638 103.048H171.897V102.694H173.638V103.048ZM170.192 103.048H168.451V102.694H170.192V103.048ZM166.711 103.048H164.971V102.694H166.711V103.048ZM163.23 103.048H161.49V102.694H163.23V103.048ZM159.784 103.048H158.044V102.694H159.784V103.048ZM156.304 103.048H154.563V102.694H156.304V103.048ZM152.858 103.048H151.118V102.694H152.858V103.048ZM149.377 103.048H147.637V102.694H149.377V103.048ZM145.897 103.048H144.156V102.694H145.897V103.048ZM142.451 103.048H140.71V102.694H142.451V103.048ZM138.97 103.048H137.23V102.694H138.97V103.048ZM135.524 103.048H133.784V102.694H135.524V103.048ZM132.043 103.048H130.303V102.694H132.043V103.048ZM128.598 103.048H126.857V102.694H128.598V103.048ZM125.117 103.048H123.377V102.694H125.117V103.048ZM121.636 103.048H119.896V102.694H121.636V103.048ZM118.19 103.048H116.45V102.694H118.19V103.048ZM114.71 103.048H112.969V102.694H114.71V103.048ZM111.264 103.048H109.523V102.694H111.264V103.048ZM107.783 103.048H106.043V102.694H107.783V103.048ZM104.302 103.048H102.562V102.694H104.302V103.048ZM100.857 103.048H99.1162V102.694H100.857V103.048ZM97.3758 103.048H95.6355V102.694H97.3758V103.048ZM93.93 103.048H92.1896V102.694H93.93V103.048ZM90.4493 103.048H88.709V102.694H90.4493V103.048ZM86.9686 103.048H85.2283V102.694H86.9686V103.048ZM83.5227 103.048H81.7824V102.694H83.5227V103.048ZM80.042 103.048H78.3017V102.694H80.042V103.048ZM76.5962 103.048H74.8558V102.694H76.5962V103.048ZM73.1155 103.048H71.3751V102.694H73.1155V103.048ZM69.6696 103.048H67.9293V102.694H69.6696V103.048ZM66.1889 103.048H64.4486V102.694H66.1889V103.048ZM62.7083 103.048H60.9679V102.694H62.7083V103.048ZM59.2624 103.048H57.522V102.694H59.2624V103.048ZM55.7817 103.048H54.0414V102.694H55.7817V103.048ZM52.3358 103.048H50.5955V102.694H52.3358V103.048ZM48.8551 103.048H47.1148V102.694H48.8551V103.048ZM45.3745 103.048H43.6341V102.694H45.3745V103.048ZM41.9286 103.048H40.1882V102.694H41.9286V103.048ZM38.4479 103.048H36.7076V102.694H38.4479V103.048ZM35.002 103.048H33.2617V102.694H35.002V103.048ZM31.5213 103.048H29.781V102.694H31.5213V103.048ZM28.0407 103.048H26.3003V102.694H28.0407V103.048ZM24.5948 103.048H22.8544V102.694H24.5948V103.048ZM21.1141 103.048H19.3738V102.694H21.1141V103.048ZM17.6682 103.048H15.9279V102.694H17.6682V103.048ZM14.1875 103.048H12.4472V102.694H14.1875V103.048Z" fill="#CED0D1"/>
<path d="M10.707 102.694H9.83685V103.048H10.707V102.694Z" fill="#CED0D1"/>
<path d="M193.582 122.319H192.712V122.673H193.582V122.319Z" fill="#CED0D1"/>
<path d="M190.971 122.673H189.231V122.319H190.971V122.673ZM187.526 122.673H185.785V122.319H187.526V122.673ZM184.045 122.673H182.304V122.319H184.045V122.673ZM180.564 122.673H178.824V122.319H180.564V122.673ZM177.118 122.673H175.378V122.319H177.118V122.673ZM173.638 122.673H171.897V122.319H173.638V122.673ZM170.192 122.673H168.451V122.319H170.192V122.673ZM166.711 122.673H164.971V122.319H166.711V122.673ZM163.23 122.673H161.49V122.319H163.23V122.673ZM159.784 122.673H158.044V122.319H159.784V122.673ZM156.304 122.673H154.563V122.319H156.304V122.673ZM152.858 122.673H151.118V122.319H152.858V122.673ZM149.377 122.673H147.637V122.319H149.377V122.673ZM145.897 122.673H144.156V122.319H145.897V122.673ZM142.451 122.673H140.71V122.319H142.451V122.673ZM138.97 122.673H137.23V122.319H138.97V122.673ZM135.524 122.673H133.784V122.319H135.524V122.673ZM132.043 122.673H130.303V122.319H132.043V122.673ZM128.598 122.673H126.857V122.319H128.598V122.673ZM125.117 122.673H123.377V122.319H125.117V122.673ZM121.636 122.673H119.896V122.319H121.636V122.673ZM118.19 122.673H116.45V122.319H118.19V122.673ZM114.71 122.673H112.969V122.319H114.71V122.673ZM111.264 122.673H109.523V122.319H111.264V122.673ZM107.783 122.673H106.043V122.319H107.783V122.673ZM104.302 122.673H102.562V122.319H104.302V122.673ZM100.857 122.673H99.1162V122.319H100.857V122.673ZM97.3758 122.673H95.6355V122.319H97.3758V122.673ZM93.93 122.673H92.1896V122.319H93.93V122.673ZM90.4493 122.673H88.709V122.319H90.4493V122.673ZM86.9686 122.673H85.2283V122.319H86.9686V122.673ZM83.5227 122.673H81.7824V122.319H83.5227V122.673ZM80.042 122.673H78.3017V122.319H80.042V122.673ZM76.5962 122.673H74.8558V122.319H76.5962V122.673ZM73.1155 122.673H71.3751V122.319H73.1155V122.673ZM69.6696 122.673H67.9293V122.319H69.6696V122.673ZM66.1889 122.673H64.4486V122.319H66.1889V122.673ZM62.7083 122.673H60.9679V122.319H62.7083V122.673ZM59.2624 122.673H57.522V122.319H59.2624V122.673ZM55.7817 122.673H54.0414V122.319H55.7817V122.673ZM52.3358 122.673H50.5955V122.319H52.3358V122.673ZM48.8551 122.673H47.1148V122.319H48.8551V122.673ZM45.3745 122.673H43.6341V122.319H45.3745V122.673ZM41.9286 122.673H40.1882V122.319H41.9286V122.673ZM38.4479 122.673H36.7076V122.319H38.4479V122.673ZM35.002 122.673H33.2617V122.319H35.002V122.673ZM31.5213 122.673H29.781V122.319H31.5213V122.673ZM28.0407 122.673H26.3003V122.319H28.0407V122.673ZM24.5948 122.673H22.8544V122.319H24.5948V122.673ZM21.1141 122.673H19.3738V122.319H21.1141V122.673ZM17.6682 122.673H15.9279V122.319H17.6682V122.673ZM14.1875 122.673H12.4472V122.319H14.1875V122.673Z" fill="#CED0D1"/>
<path d="M10.707 122.319H9.83685V122.673H10.707V122.319Z" fill="#CED0D1"/>
<path d="M193.582 141.909H192.712V142.264H193.582V141.909Z" fill="#CED0D1"/>
<path d="M190.972 142.264H189.231V141.909H190.972V142.264ZM187.526 142.264H185.785V141.909H187.526V142.264ZM184.045 142.264H182.305V141.909H184.045V142.264ZM180.564 142.264H178.824V141.909H180.564V142.264ZM177.118 142.264H175.378V141.909H177.118V142.264ZM173.638 142.264H171.897V141.909H173.638V142.264ZM170.192 142.264H168.452V141.909H170.192V142.264ZM166.711 142.264H164.971V141.909H166.711V142.264ZM163.231 142.264H161.49V141.909H163.231V142.264ZM159.785 142.264H158.044V141.909H159.785V142.264ZM156.304 142.264H154.564V141.909H156.304V142.264ZM152.858 142.264H151.118V141.909H152.858V142.264ZM149.377 142.264H147.637V141.909H149.377V142.264ZM145.897 142.264H144.156V141.909H145.897V142.264ZM142.451 142.264H140.711V141.909H142.451V142.264ZM138.97 142.264H137.23V141.909H138.97V142.264ZM135.524 142.264H133.784V141.909H135.524V142.264ZM132.044 142.264H130.303V141.909H132.044V142.264ZM128.598 142.264H126.857V141.909H128.598V142.264ZM125.117 142.264H123.377V141.909H125.117V142.264ZM121.636 142.264H119.896V141.909H121.636V142.264ZM118.191 142.264H116.45V141.909H118.191V142.264ZM114.71 142.264H112.969V141.909H114.71V142.264ZM111.264 142.264H109.524V141.909H111.264V142.264ZM107.783 142.264H106.043V141.909H107.783V142.264ZM104.303 142.264H102.562V141.909H104.303V142.264ZM100.857 142.264H99.1164V141.909H100.857V142.264ZM97.376 142.264H95.6357V141.909H97.376V142.264ZM93.9302 142.264H92.1898V141.909H93.9302V142.264ZM90.4495 142.264H88.7091V141.909H90.4495V142.264ZM86.9688 142.264H85.2285V141.909H86.9688V142.264ZM83.5229 142.264H81.7826V141.909H83.5229V142.264ZM80.0422 142.264H78.3019V141.909H80.0422V142.264ZM76.5964 142.264H74.856V141.909H76.5964V142.264ZM73.1157 142.264H71.3753V141.909H73.1157V142.264ZM69.6698 142.264H67.9295V141.909H69.6698V142.264ZM66.1891 142.264H64.4488V141.909H66.1891V142.264ZM62.7084 142.264H60.9681V141.909H62.7084V142.264ZM59.2626 142.264H57.5222V141.909H59.2626V142.264ZM55.7819 142.264H54.0415V141.909H55.7819V142.264ZM52.336 142.264H50.5957V141.909H52.336V142.264ZM48.8553 142.264H47.115V141.909H48.8553V142.264ZM45.3746 142.264H43.6343V141.909H45.3746V142.264ZM41.9288 142.264H40.1884V141.909H41.9288V142.264ZM38.4481 142.264H36.7077V141.909H38.4481V142.264ZM35.0022 142.264H33.2619V141.909H35.0022V142.264ZM31.5215 142.264H29.7812V141.909H31.5215V142.264ZM28.0408 142.264H26.3005V141.909H28.0408V142.264ZM24.595 142.264H22.8546V141.909H24.595V142.264ZM21.1143 142.264H19.3739V141.909H21.1143V142.264ZM17.6684 142.264H15.9281V141.909H17.6684V142.264ZM14.1877 142.264H12.4474V141.909H14.1877V142.264Z" fill="#CED0D1"/>
<path d="M10.707 141.909H9.83685V142.264H10.707V141.909Z" fill="#CED0D1"/>
</g>
<path d="M136.708 61.9579C135.908 62.631 108.932 93.9813 101.658 102.412C101.24 101.562 100.787 100.712 100.37 99.8617C99.9173 98.9761 99.4648 98.0551 98.9775 97.1695C98.525 96.2839 98.0377 95.3983 97.5852 94.5127C97.0979 93.6271 96.6454 92.7415 96.1581 91.8559L94.6962 89.1991C94.209 88.3135 93.7217 87.4279 93.2344 86.5777L89.336 79.67L85.4028 86.2589L83.4188 89.5887C82.7575 90.6869 82.0962 91.8204 81.4348 92.9186L77.5365 99.6137L73.6033 106.309L71.6193 109.639L69.6353 112.969L61.6298 126.217L57.627 132.842C57.0353 133.833 56.4436 134.79 55.8518 135.782L44.9573 120.195L43.2518 117.751L41.4766 119.947L33.7147 129.76L25.8832 139.572L18.0864 149.385L10.3245 158.984V159.976H11.0207L19.5135 150.624L27.9716 141.379L36.3948 132.133L42.8341 125.048L53.6938 142.654L55.9563 146.338L58.4623 142.619C59.9242 140.493 61.3513 138.332 62.7784 136.207L67.0596 129.76L75.6569 116.901L77.8149 113.677L79.973 110.454L84.3586 104.077L88.7095 97.7717C88.9183 98.1968 89.162 98.6219 89.3708 99.0469C89.8233 99.9326 90.3106 100.818 90.7979 101.704C91.2852 102.589 91.7725 103.475 92.2598 104.361C92.7471 105.246 93.2344 106.132 93.7217 106.982L95.2184 109.603L96.715 112.225L99.8825 117.68C99.8825 117.68 143.809 70.814 144.505 69.7867L136.708 61.9579Z" fill="url(#paint0_linear_0_221)"/>
<path d="M141.372 51.0118C141.372 51.0118 138.831 54.6959 138.553 55.7232L150.666 66.315C150.666 66.315 152.51 65.0752 154.982 62.7018L141.372 51.0118Z" fill="#FAAE3E"/>
<path d="M159.312 69.8943C159.312 69.8943 163.623 68.8919 164.506 68.3192L162.487 52.1968C162.487 52.1968 160.301 51.8593 156.904 51.9362L159.312 69.8943Z" fill="#FAAE3E"/>
<path d="M150.49 47.341C150.49 47.341 149.493 42.9559 148.927 42.0589L133.092 44.1612C133.092 44.1612 132.767 46.3866 132.852 49.8437L150.49 47.341Z" fill="#FAAE3E"/>
<path d="M138.03 56.7153C138.03 56.7153 137.543 57.4946 137.508 57.778L148.855 67.6259C148.855 67.6259 149.76 67.0591 149.795 66.9528L138.03 56.7153Z" fill="#00BC91"/>
<path d="M169.97 23.044C169.97 23.044 154.804 32.249 144.505 50.8849L154.804 59.9087C154.804 59.9087 173.179 45.533 178.305 30.8042L169.97 23.044Z" fill="#4DD6B6"/>
<path d="M138.03 56.7144C138.03 56.7144 137.543 57.4937 137.508 57.7771L148.855 67.625C148.855 67.625 149.76 67.0583 149.795 66.952L138.03 56.7144Z" fill="#4DD6B6"/>
<path d="M178.337 30.9771C181.347 25.0052 183.141 19.3427 181.62 18.2287C180.222 17.2386 175.084 19.3117 169.885 23.0867L178.337 30.9771Z" fill="#FAAE3E"/>
<path d="M165.563 45.629C163.648 47.967 160.272 48.2858 157.975 46.3375C155.678 44.3891 155.364 40.953 157.279 38.615C159.193 36.277 162.569 35.9582 164.867 37.9065C167.129 39.8549 167.442 43.291 165.563 45.629Z" fill="#FAAE3E"/>
<path d="M164.588 44.8136C163.126 46.5849 160.516 46.8328 158.775 45.345C157.035 43.8572 156.791 41.2004 158.253 39.4292C159.715 37.658 162.326 37.41 164.066 38.8978C165.806 40.3856 166.05 43.007 164.588 44.8136Z" fill="white"/>
<g opacity="0.11">
<path d="M195.915 159.976H6.39166V163.979H195.915V159.976Z" fill="#00BC91"/>
<path d="M10.3248 4.74628H6.39166V163.978H10.3248V4.74628Z" fill="#00BC91"/>
<path d="M16.2416 8.04127L10.9162 2.62138L8.37527 0L5.79957 2.62138L0.474121 8.04127L3.01502 10.6272L8.37527 5.20734L13.7007 10.6272L16.2416 8.04127Z" fill="#00BC91"/>
<path d="M192.573 170L197.933 164.545L200.474 161.959L197.933 159.373L192.573 153.917L190.032 156.539L195.358 161.959L190.032 167.379L192.573 170Z" fill="#0C8485"/>
</g>
<defs>
<linearGradient id="paint0_linear_0_221" x1="10.3174" y1="110.966" x2="144.519" y2="110.966" gradientUnits="userSpaceOnUse">
<stop stop-color="white" stop-opacity="0"/>
<stop offset="0.00492477" stop-color="#00BC91" stop-opacity="0.01"/>
<stop offset="0.0903695" stop-color="#00BC91" stop-opacity="0.0903695"/>
<stop offset="0.1808" stop-color="#00BC91" stop-opacity="0.1808"/>
<stop offset="0.2773" stop-color="#00BC91" stop-opacity="0.2773"/>
<stop offset="0.3804" stop-color="#00BC91" stop-opacity="0.3804"/>
<stop offset="0.4921" stop-color="#00BC91" stop-opacity="0.4921"/>
<stop offset="0.617" stop-color="#00BC91" stop-opacity="0.6"/>
<stop offset="0.7657" stop-color="#00BC91" stop-opacity="0.77"/>
<stop offset="1" stop-color="#00BC91"/>
</linearGradient>
</defs>
</svg>
