<svg width="260" height="170" viewBox="0 0 260 170" fill="none" xmlns="http://www.w3.org/2000/svg">
<line y1="86.4643" x2="260" y2="86.4643" stroke="#E8E8E8" stroke-width="0.7"/>
<line x1="131.556" y1="170" x2="131.556" y2="0.712158" stroke="#E8E8E8" stroke-width="0.7"/>
<path d="M165.34 148.271H215.738C216.781 148.271 217.628 147.415 217.628 146.364V113.669C217.628 112.617 216.781 111.762 215.738 111.762H165.34C164.298 111.762 163.45 112.617 163.45 113.669V146.364C163.45 147.415 164.299 148.271 165.34 148.271ZM165.07 113.669C165.07 113.519 165.191 113.397 165.34 113.397H215.738C215.887 113.397 216.008 113.519 216.008 113.669V146.364C216.008 146.514 215.887 146.636 215.738 146.636H165.34C165.191 146.636 165.07 146.514 165.07 146.364V113.669ZM221.692 149.73V151.256C221.692 151.661 221.367 151.989 220.966 151.989H160.113C159.712 151.989 159.387 151.661 159.387 151.256V149.73H184.975C185.101 150.156 185.488 150.468 185.951 150.468H195.128C195.591 150.468 195.977 150.156 196.104 149.73H221.692Z" fill="black"/>
<path d="M65.4121 151.197H49.3912C48.027 151.197 46.9172 150.028 46.9172 148.591V115.331C46.9172 113.893 48.027 112.724 49.3912 112.724H65.4121C66.7763 112.724 67.8862 113.893 67.8862 115.331V148.591C67.8861 150.028 66.7763 151.197 65.4121 151.197ZM66.745 115.331C66.745 114.556 66.147 113.926 65.4121 113.926H49.3912C48.6562 113.926 48.0583 114.556 48.0583 115.331V148.591C48.0583 149.365 48.6562 149.995 49.3912 149.995H65.4121C66.1471 149.995 66.7451 149.365 66.7451 148.591V115.331H66.745ZM59.836 147.964C59.836 147.632 59.5805 147.363 59.2654 147.363H55.5378C55.2227 147.363 54.9673 147.632 54.9673 147.964C54.9673 148.296 55.2227 148.565 55.5378 148.565H59.2654C59.5805 148.565 59.836 148.296 59.836 147.964ZM57.4016 118.71C56.3436 118.71 55.4829 117.803 55.4829 116.688C55.4829 115.574 56.3436 114.667 57.4016 114.667C58.4596 114.667 59.3203 115.574 59.3203 116.688C59.3203 117.803 58.4596 118.71 57.4016 118.71ZM57.4016 115.869C56.9728 115.869 56.6239 116.237 56.6239 116.688C56.6239 117.14 56.9728 117.508 57.4016 117.508C57.8303 117.508 58.1792 117.14 58.1792 116.688C58.1792 116.237 57.8304 115.869 57.4016 115.869Z" fill="black"/>
<path d="M191.528 27.8266H189.574V29.1416H191.528V27.8266Z" fill="black"/>
<path d="M190.551 55.4402C189.294 55.4402 188.271 56.4726 188.271 57.7413C188.271 59.01 189.294 60.0425 190.551 60.0425C191.808 60.0425 192.831 59.01 192.831 57.7413C192.831 56.4726 191.808 55.4402 190.551 55.4402ZM190.551 58.7276C190.012 58.7276 189.574 58.2852 189.574 57.7414C189.574 57.1976 190.012 56.7552 190.551 56.7552C191.09 56.7552 191.528 57.1976 191.528 57.7414C191.528 58.2852 191.09 58.7276 190.551 58.7276Z" fill="black"/>
<path d="M201.297 25.1967H179.805C178.007 25.1967 176.544 26.6692 176.544 28.4792V58.7322C176.544 60.5422 178.007 62.0147 179.805 62.0147H201.297C203.095 62.0147 204.559 60.5422 204.559 58.7322V28.4792C204.559 26.6692 203.095 25.1967 201.297 25.1967ZM203.256 58.7323C203.256 59.8174 202.377 60.6999 201.297 60.6999H179.805C178.725 60.6999 177.846 59.8174 177.846 58.7323V28.4792C177.846 27.3941 178.725 26.5115 179.805 26.5115H201.297C202.377 26.5115 203.256 27.394 203.256 28.4792L203.256 58.7323Z" fill="black"/>
<path d="M83.1187 25.1967H32.6378C32.3804 25.1967 32.1334 25.3007 31.9514 25.4858C31.7693 25.6709 31.6671 25.922 31.6671 26.1838V55.7982C31.6671 56.06 31.7693 56.3111 31.9514 56.4962C32.1334 56.6814 32.3804 56.7854 32.6378 56.7854H56.9075V60.734H46.2288C45.9714 60.734 45.7244 60.838 45.5424 61.0231C45.3603 61.2082 45.258 61.4593 45.258 61.7211C45.258 61.9829 45.3603 62.234 45.5424 62.4191C45.7244 62.6043 45.9714 62.7083 46.2288 62.7083H69.5277C69.7851 62.7083 70.0321 62.6043 70.2141 62.4191C70.3962 62.234 70.4985 61.9829 70.4985 61.7211C70.4985 61.4593 70.3962 61.2082 70.2141 61.0231C70.0321 60.838 69.7851 60.734 69.5277 60.734H58.849V56.7854H83.1187C83.3761 56.7854 83.6231 56.6814 83.8051 56.4962C83.9872 56.3111 84.0894 56.06 84.0894 55.7982V26.1838C84.0894 25.922 83.9872 25.6709 83.8051 25.4858C83.6231 25.3007 83.3761 25.1967 83.1187 25.1967ZM82.1479 54.8111H33.6086V27.171H82.1479V54.8111Z" fill="black"/>
</svg>
